<?xml version="1.0" encoding="utf-8"?>
<!-- Generator: Adobe Illustrator 25.3.1, SVG Export Plug-In . SVG Version: 6.00 Build 0)  -->
<svg version="1.1" id="레이어_13" xmlns="http://www.w3.org/2000/svg" xmlns:xlink="http://www.w3.org/1999/xlink" x="0px"
	 y="0px" viewBox="0 0 650 170.2" style="enable-background:new 0 0 650 170.2;" xml:space="preserve">
<style type="text/css">
	.st0{fill:#FF4E41;}
	.st1{fill:#4BA8EA;}
	.st2{fill:#FFCB39;}
	.st3{fill:#3561EF;}
	.st4{opacity:0.44;}
	.st5{fill:#FFFFFF;}
	.st6{opacity:0.75;}
	.st7{fill:none;stroke:#000000;stroke-width:4;stroke-miterlimit:10;}
</style>
<g>
	<rect x="35" class="st0" width="30" height="30"/>
	<rect x="70" class="st0" width="30" height="30"/>
	<rect x="35" y="35" class="st0" width="30" height="30"/>
	<rect x="35" y="70" class="st0" width="30" height="30"/>
	<rect x="35" y="105" class="st0" width="30" height="30"/>
	<rect x="35" y="140" class="st0" width="30" height="30"/>
	<rect x="395" class="st0" width="30" height="30"/>
	<rect x="360" class="st0" width="30" height="30"/>
	<rect x="430" class="st0" width="30" height="30"/>
	<rect x="430" y="35" class="st0" width="30" height="30"/>
	<rect x="395" y="70" class="st0" width="30" height="30"/>
	<rect x="395" y="105" class="st0" width="30" height="30"/>
	<rect x="430" y="140" class="st0" width="30" height="30"/>
	<rect x="360" y="35" class="st0" width="30" height="30"/>
	<rect x="360" y="70" class="st0" width="30" height="30"/>
	<rect x="360" y="105" class="st0" width="30" height="30"/>
	<rect x="360" y="140" class="st0" width="30" height="30"/>
</g>
<g>
	<rect class="st1" width="30" height="30"/>
	<rect x="275" class="st1" width="30" height="30"/>
	<rect x="240" class="st1" width="30" height="30"/>
	<rect x="310" class="st1" width="30" height="30"/>
	<rect x="275" y="35" class="st1" width="30" height="30"/>
	<rect x="275" y="70" class="st1" width="30" height="30"/>
	<rect x="275" y="105" class="st1" width="30" height="30"/>
	<rect x="275" y="140" class="st1" width="30" height="30"/>
	<rect x="490" y="105" class="st1" width="30" height="30"/>
</g>
<g>
	<rect x="190" y="140" class="st2" width="30" height="30"/>
	<rect x="430" y="70" class="st2" width="30" height="30"/>
	<rect x="490" class="st2" width="30" height="30"/>
	<rect x="490" y="35" class="st2" width="30" height="30"/>
	<rect x="490" y="70" class="st2" width="30" height="30"/>
	<rect x="490" y="140" class="st2" width="30" height="30"/>
</g>
<g>
	<rect x="155" class="st3" width="30" height="30"/>
	<rect x="120" class="st3" width="30" height="30"/>
	<rect x="190" class="st3" width="30" height="30"/>
	<rect x="155" y="70" class="st3" width="30" height="30"/>
	<rect x="190" y="70" class="st3" width="30" height="30"/>
	<rect x="155" y="140" class="st3" width="30" height="30"/>
	<rect x="120" y="35" class="st3" width="30" height="30"/>
	<rect x="120" y="70" class="st3" width="30" height="30"/>
	<rect x="120" y="105" class="st3" width="30" height="30"/>
	<rect x="120" y="140" class="st3" width="30" height="30"/>
	<rect x="585" class="st3" width="30" height="30"/>
	<rect x="550" class="st3" width="30" height="30"/>
	<rect x="620" class="st3" width="30" height="30"/>
	<rect x="585" y="70" class="st3" width="30" height="30"/>
	<rect x="620" y="70" class="st3" width="30" height="30"/>
	<rect x="585" y="140" class="st3" width="30" height="30"/>
	<rect x="620" y="140" class="st3" width="30" height="30"/>
	<rect x="550" y="35" class="st3" width="30" height="30"/>
	<rect x="550" y="70" class="st3" width="30" height="30"/>
	<rect x="620" y="105" class="st3" width="30" height="30"/>
	<rect x="550" y="140" class="st3" width="30" height="30"/>
</g>
<g class="st4">
	<path class="st5" d="M0,0v30l3.9-3.9c0-0.2,0-0.3,0.1-0.5V4h22l4-4H0z"/>
	<path class="st5" d="M26,26"/>
</g>
<g class="st4">
	<path class="st5" d="M35,0v30l3.9-3.9c0-0.2,0-0.3,0.1-0.5V4h22l4-4H35z"/>
	<path class="st5" d="M61,26"/>
</g>
<g class="st4">
	<path class="st5" d="M35,35v30l3.9-3.9c0-0.2,0-0.3,0.1-0.5V39h22l4-4H35z"/>
	<path class="st5" d="M61,61"/>
</g>
<g class="st4">
	<path class="st5" d="M120,35v30l3.9-3.9c0-0.2,0-0.3,0.1-0.5V39h22l4-4H120z"/>
	<path class="st5" d="M146,61"/>
</g>
<g class="st4">
	<path class="st5" d="M120,105v30l3.9-3.9c0-0.2,0-0.3,0.1-0.5V109h22l4-4H120z"/>
	<path class="st5" d="M146,131"/>
</g>
<g class="st4">
	<path class="st5" d="M35,70v30l3.9-3.9c0-0.2,0-0.3,0.1-0.5V74h22l4-4H35z"/>
	<path class="st5" d="M61,96"/>
</g>
<g class="st4">
	<path class="st5" d="M35,105v30l3.9-3.9c0-0.2,0-0.3,0.1-0.5V109h22l4-4H35z"/>
	<path class="st5" d="M61,131"/>
</g>
<g class="st4">
	<path class="st5" d="M35,140v30l3.9-3.9c0-0.2,0-0.3,0.1-0.5V144h22l4-4H35z"/>
	<path class="st5" d="M61,166"/>
</g>
<g class="st4">
	<path class="st5" d="M275,0v30l3.9-3.9c0-0.2,0-0.3,0.1-0.5V4h22l4-4H275z"/>
	<path class="st5" d="M301,26"/>
</g>
<g class="st4">
	<path class="st5" d="M275,35v30l3.9-3.9c0-0.2,0-0.3,0.1-0.5V39h22l4-4H275z"/>
	<path class="st5" d="M301,61"/>
</g>
<g class="st4">
	<path class="st5" d="M275,70v30l3.9-3.9c0-0.2,0-0.3,0.1-0.5V74h22l4-4H275z"/>
	<path class="st5" d="M301,96"/>
</g>
<g class="st4">
	<path class="st5" d="M275,105v30l3.9-3.9c0-0.2,0-0.3,0.1-0.5V109h22l4-4H275z"/>
	<path class="st5" d="M301,131"/>
</g>
<g class="st4">
	<path class="st5" d="M275,140v30l3.9-3.9c0-0.2,0-0.3,0.1-0.5V144h22l4-4H275z"/>
	<path class="st5" d="M301,166"/>
</g>
<g class="st4">
	<path class="st5" d="M490,0v30l3.9-3.9c0-0.2,0-0.3,0.1-0.5V4h22l4-4H490z"/>
	<path class="st5" d="M516,26"/>
</g>
<g class="st4">
	<path class="st5" d="M490,35v30l3.9-3.9c0-0.2,0-0.3,0.1-0.5V39h22l4-4H490z"/>
	<path class="st5" d="M516,61"/>
</g>
<g class="st4">
	<path class="st5" d="M490,70v30l3.9-3.9c0-0.2,0-0.3,0.1-0.5V74h22l4-4H490z"/>
	<path class="st5" d="M516,96"/>
</g>
<g class="st4">
	<path class="st5" d="M490,105v30l3.9-3.9c0-0.2,0-0.3,0.1-0.5V109h22l4-4H490z"/>
	<path class="st5" d="M516,131"/>
</g>
<g class="st4">
	<path class="st5" d="M490,140v30l3.9-3.9c0-0.2,0-0.3,0.1-0.5V144h22l4-4H490z"/>
	<path class="st5" d="M516,166"/>
</g>
<g class="st4">
	<path class="st5" d="M70,0v30l3.9-3.9c0-0.2,0-0.3,0.1-0.5V4h22l4-4H70z"/>
	<path class="st5" d="M96,26"/>
</g>
<g class="st4">
	<path class="st5" d="M120,0v30l3.9-3.9c0-0.2,0-0.3,0.1-0.5V4h22l4-4H120z"/>
	<path class="st5" d="M146,26"/>
</g>
<g class="st4">
	<path class="st5" d="M155,0v30l3.9-3.9c0-0.2,0-0.3,0.1-0.5V4h22l4-4H155z"/>
	<path class="st5" d="M181,26"/>
</g>
<g class="st4">
	<path class="st5" d="M190,0v30l3.9-3.9c0-0.2,0-0.3,0.1-0.5V4h22l4-4H190z"/>
	<path class="st5" d="M216,26"/>
</g>
<g class="st4">
	<path class="st5" d="M120,70v30l3.9-3.9c0-0.2,0-0.3,0.1-0.5V74h22l4-4H120z"/>
	<path class="st5" d="M146,96"/>
</g>
<g class="st4">
	<path class="st5" d="M155,70v30l3.9-3.9c0-0.2,0-0.3,0.1-0.5V74h22l4-4H155z"/>
	<path class="st5" d="M181,96"/>
</g>
<g class="st4">
	<path class="st5" d="M190,70v30l3.9-3.9c0-0.2,0-0.3,0.1-0.5V74h22l4-4H190z"/>
	<path class="st5" d="M216,96"/>
</g>
<g class="st4">
	<path class="st5" d="M120,140v30l3.9-3.9c0-0.2,0-0.3,0.1-0.5V144h22l4-4H120z"/>
	<path class="st5" d="M146,166"/>
</g>
<g class="st4">
	<path class="st5" d="M155,140v30l3.9-3.9c0-0.2,0-0.3,0.1-0.5V144h22l4-4H155z"/>
	<path class="st5" d="M181,166"/>
</g>
<g class="st4">
	<path class="st5" d="M190,140v30l3.9-3.9c0-0.2,0-0.3,0.1-0.5V144h22l4-4H190z"/>
	<path class="st5" d="M216,166"/>
</g>
<g class="st4">
	<path class="st5" d="M360,70.1v30l3.9-3.9c0-0.2,0-0.3,0.1-0.5V74.1h22l4-4H360z"/>
	<path class="st5" d="M386,96.1"/>
</g>
<g class="st4">
	<path class="st5" d="M360,35v30l3.9-3.9c0-0.2,0-0.3,0.1-0.5V39h22l4-4H360z"/>
	<path class="st5" d="M386,61"/>
</g>
<g class="st4">
	<path class="st5" d="M550,35v30l3.9-3.9c0-0.2,0-0.3,0.1-0.5V39h22l4-4H550z"/>
	<path class="st5" d="M576,61"/>
</g>
<g class="st4">
	<path class="st5" d="M620,105v30l3.9-3.9c0-0.2,0-0.3,0.1-0.5V109h22l4-4H620z"/>
	<path class="st5" d="M646,131"/>
</g>
<g class="st4">
	<path class="st5" d="M430,35v30l3.9-3.9c0-0.2,0-0.3,0.1-0.5V39h22l4-4H430z"/>
	<path class="st5" d="M456,61"/>
</g>
<g class="st4">
	<path class="st5" d="M395,70.1v30l3.9-3.9c0-0.2,0-0.3,0.1-0.5V74.1h22l4-4H395z"/>
	<path class="st5" d="M421,96.1"/>
</g>
<g class="st4">
	<path class="st5" d="M360,105v30l3.9-3.9c0-0.2,0-0.3,0.1-0.5V109h22l4-4H360z"/>
	<path class="st5" d="M386,131"/>
</g>
<g class="st4">
	<path class="st5" d="M395,105v30l3.9-3.9c0-0.2,0-0.3,0.1-0.5V109h22l4-4H395z"/>
	<path class="st5" d="M421,131"/>
</g>
<g class="st4">
	<path class="st5" d="M430,70.1v30l3.9-3.9c0-0.2,0-0.3,0.1-0.5V74.1h22l4-4H430z"/>
	<path class="st5" d="M456,96.1"/>
</g>
<g class="st4">
	<path class="st5" d="M360,140v30l3.9-3.9c0-0.2,0-0.3,0.1-0.5V144h22l4-4H360z"/>
	<path class="st5" d="M386,166"/>
</g>
<g class="st4">
	<path class="st5" d="M430,140v30l3.9-3.9c0-0.2,0-0.3,0.1-0.5V144h22l4-4H430z"/>
	<path class="st5" d="M456,166"/>
</g>
<g class="st4">
	<path class="st5" d="M240,0v30l3.9-3.9c0-0.2,0-0.3,0.1-0.5V4h22l4-4H240z"/>
	<path class="st5" d="M266,26"/>
</g>
<g class="st4">
	<path class="st5" d="M310,0v30l3.9-3.9c0-0.2,0-0.3,0.1-0.5V4h22l4-4H310z"/>
	<path class="st5" d="M336,26"/>
</g>
<g class="st4">
	<path class="st5" d="M360,0v30l3.9-3.9c0-0.2,0-0.3,0.1-0.5V4h22l4-4H360z"/>
	<path class="st5" d="M386,26"/>
</g>
<g class="st4">
	<path class="st5" d="M395,0v30l3.9-3.9c0-0.2,0-0.3,0.1-0.5V4h22l4-4H395z"/>
	<path class="st5" d="M421,26"/>
</g>
<g class="st4">
	<path class="st5" d="M430,0v30l3.9-3.9c0-0.2,0-0.3,0.1-0.5V4h22l4-4H430z"/>
	<path class="st5" d="M456,26"/>
</g>
<g class="st4">
	<path class="st5" d="M550,0v30l3.9-3.9c0-0.2,0-0.3,0.1-0.5V4h22l4-4H550z"/>
	<path class="st5" d="M576,26"/>
</g>
<g class="st4">
	<path class="st5" d="M585,0v30l3.9-3.9c0-0.2,0-0.3,0.1-0.5V4h22l4-4H585z"/>
	<path class="st5" d="M611,26"/>
</g>
<g class="st4">
	<path class="st5" d="M620,0v30l3.9-3.9c0-0.2,0-0.3,0.1-0.5V4h22l4-4H620z"/>
	<path class="st5" d="M646,26"/>
</g>
<g class="st4">
	<path class="st5" d="M550,70v30l3.9-3.9c0-0.2,0-0.3,0.1-0.5V74h22l4-4H550z"/>
	<path class="st5" d="M576,96"/>
</g>
<g class="st4">
	<path class="st5" d="M585,70v30l3.9-3.9c0-0.2,0-0.3,0.1-0.5V74h22l4-4H585z"/>
	<path class="st5" d="M611,96"/>
</g>
<g class="st4">
	<path class="st5" d="M620,70v30l3.9-3.9c0-0.2,0-0.3,0.1-0.5V74h22l4-4H620z"/>
	<path class="st5" d="M646,96"/>
</g>
<g class="st4">
	<path class="st5" d="M550,140v30l3.9-3.9c0-0.2,0-0.3,0.1-0.5V144h22l4-4H550z"/>
	<path class="st5" d="M576,166"/>
</g>
<g class="st4">
	<path class="st5" d="M585,140v30l3.9-3.9c0-0.2,0-0.3,0.1-0.5V144h22l4-4H585z"/>
	<path class="st5" d="M611,166"/>
</g>
<g class="st4">
	<path class="st5" d="M620,140v30l3.9-3.9c0-0.2,0-0.3,0.1-0.5V144h22l4-4H620z"/>
	<path class="st5" d="M646,166"/>
</g>
<g class="st6">
	<g class="st4">
		<polyline class="st7" points="27.6,2.2 27.6,28.2 1.6,28.2 		"/>
	</g>
	<g class="st4">
		<polyline class="st7" points="62.6,2.2 62.6,28.2 36.6,28.2 		"/>
	</g>
	<g class="st4">
		<polyline class="st7" points="62.6,37.2 62.6,63.2 36.6,63.2 		"/>
	</g>
	<g class="st4">
		<polyline class="st7" points="62.6,72.2 62.6,98.2 36.6,98.2 		"/>
	</g>
	<g class="st4">
		<polyline class="st7" points="62.6,107.2 62.6,133.2 36.6,133.2 		"/>
	</g>
	<g class="st4">
		<polyline class="st7" points="62.6,142.2 62.6,168.2 36.6,168.2 		"/>
	</g>
	<g class="st4">
		<polyline class="st7" points="97.6,2.2 97.6,28.2 71.6,28.2 		"/>
	</g>
	<g class="st4">
		<polyline class="st7" points="267.6,2.2 267.6,28.2 241.6,28.2 		"/>
	</g>
	<g class="st4">
		<polyline class="st7" points="302.6,2.2 302.6,28.2 276.6,28.2 		"/>
	</g>
	<g class="st4">
		<polyline class="st7" points="302.6,37.2 302.6,63.2 276.6,63.2 		"/>
	</g>
	<g class="st4">
		<polyline class="st7" points="302.6,72.2 302.6,98.2 276.6,98.2 		"/>
	</g>
	<g class="st4">
		<polyline class="st7" points="302.6,107.2 302.6,133.2 276.6,133.2 		"/>
	</g>
	<g class="st4">
		<polyline class="st7" points="302.6,142.2 302.6,168.2 276.6,168.2 		"/>
	</g>
	<g class="st4">
		<polyline class="st7" points="517.6,2.2 517.6,28.2 491.6,28.2 		"/>
	</g>
	<g class="st4">
		<polyline class="st7" points="517.6,37.2 517.6,63.2 491.6,63.2 		"/>
	</g>
	<g class="st4">
		<polyline class="st7" points="517.6,72.2 517.6,98.2 491.6,98.2 		"/>
	</g>
	<g class="st4">
		<polyline class="st7" points="517.6,107.2 517.6,133.2 491.6,133.2 		"/>
	</g>
	<g class="st4">
		<polyline class="st7" points="517.6,142.2 517.6,168.2 491.6,168.2 		"/>
	</g>
	<g class="st4">
		<polyline class="st7" points="337.6,2.2 337.6,28.2 311.6,28.2 		"/>
	</g>
	<g class="st4">
		<polyline class="st7" points="147.6,2.2 147.6,28.2 121.6,28.2 		"/>
		<polyline class="st7" points="147.6,37.2 147.6,63.2 121.6,63.2 		"/>
		<polyline class="st7" points="147.6,107.2 147.6,133.2 121.6,133.2 		"/>
	</g>
	<g class="st4">
		<polyline class="st7" points="182.6,2.2 182.6,28.2 156.6,28.2 		"/>
	</g>
	<g class="st4">
		<polyline class="st7" points="217.6,2.2 217.6,28.2 191.6,28.2 		"/>
	</g>
	<g class="st4">
		<polyline class="st7" points="147.6,72.2 147.6,98.2 121.6,98.2 		"/>
	</g>
	<g class="st4">
		<polyline class="st7" points="182.6,72.2 182.6,98.2 156.6,98.2 		"/>
	</g>
	<g class="st4">
		<polyline class="st7" points="217.6,72.2 217.6,98.2 191.6,98.2 		"/>
	</g>
	<g class="st4">
		<polyline class="st7" points="147.6,142.2 147.6,168.2 121.6,168.2 		"/>
	</g>
	<g class="st4">
		<polyline class="st7" points="182.6,142.2 182.6,168.2 156.6,168.2 		"/>
	</g>
	<g class="st4">
		<polyline class="st7" points="217.6,142.2 217.6,168.2 191.6,168.2 		"/>
	</g>
	<g class="st4">
		<polyline class="st7" points="387.6,2.2 387.6,28.2 361.6,28.2 		"/>
		<polyline class="st7" points="387.6,37.2 387.6,63.2 361.6,63.2 		"/>
		<polyline class="st7" points="387.6,107.2 387.6,133.2 361.6,133.2 		"/>
	</g>
	<g class="st4">
		<polyline class="st7" points="422.6,2.2 422.6,28.2 396.6,28.2 		"/>
	</g>
	<g class="st4">
		<polyline class="st7" points="457.6,2.2 457.6,28.2 431.6,28.2 		"/>
	</g>
	<g class="st4">
		<polyline class="st7" points="387.6,72.2 387.6,98.2 361.6,98.2 		"/>
	</g>
	<g class="st4">
		<polyline class="st7" points="422.6,72.2 422.6,98.2 396.6,98.2 		"/>
	</g>
	<g class="st4">
		<polyline class="st7" points="457.6,72.2 457.6,98.2 431.6,98.2 		"/>
	</g>
	<g class="st4">
		<polyline class="st7" points="457.6,37.2 457.6,63.2 431.6,63.2 		"/>
	</g>
	<g class="st4">
		<polyline class="st7" points="387.6,142.2 387.6,168.2 361.6,168.2 		"/>
	</g>
	<g class="st4">
		<polyline class="st7" points="422.6,107.2 422.6,133.2 396.6,133.2 		"/>
	</g>
	<g class="st4">
		<polyline class="st7" points="457.6,142.2 457.6,168.2 431.6,168.2 		"/>
	</g>
	<g class="st4">
		<polyline class="st7" points="577.6,2.2 577.6,28.2 551.6,28.2 		"/>
		<polyline class="st7" points="577.6,37.2 577.6,63.2 551.6,63.2 		"/>
		<polyline class="st7" points="647.6,107.2 647.6,133.2 621.6,133.2 		"/>
	</g>
	<g class="st4">
		<polyline class="st7" points="612.6,2.2 612.6,28.2 586.6,28.2 		"/>
	</g>
	<g class="st4">
		<polyline class="st7" points="647.6,2.2 647.6,28.2 621.6,28.2 		"/>
	</g>
	<g class="st4">
		<polyline class="st7" points="577.6,72.2 577.6,98.2 551.6,98.2 		"/>
	</g>
	<g class="st4">
		<polyline class="st7" points="612.6,72.2 612.6,98.2 586.6,98.2 		"/>
	</g>
	<g class="st4">
		<polyline class="st7" points="647.6,72.2 647.6,98.2 621.6,98.2 		"/>
	</g>
	<g class="st4">
		<polyline class="st7" points="577.6,142.2 577.6,168.2 551.6,168.2 		"/>
	</g>
	<g class="st4">
		<polyline class="st7" points="612.6,142.2 612.6,168.2 586.6,168.2 		"/>
	</g>
	<g class="st4">
		<polyline class="st7" points="647.6,142.2 647.6,168.2 621.6,168.2 		"/>
	</g>
</g>
</svg>
