<?xml version="1.0" encoding="utf-8"?>
<!-- Generator: Adobe Illustrator 25.3.1, SVG Export Plug-In . SVG Version: 6.00 Build 0)  -->
<svg version="1.1" id="레이어_14" xmlns="http://www.w3.org/2000/svg" xmlns:xlink="http://www.w3.org/1999/xlink" x="0px"
	 y="0px" viewBox="0 0 34 45.3" style="enable-background:new 0 0 34 45.3;" xml:space="preserve">
<style type="text/css">
	.st0{fill:#38A87D;}
	.st1{fill:#FFFFFF;stroke:#38A87D;stroke-width:4;stroke-miterlimit:10;}
</style>
<polygon class="st0" points="13.3,42.3 9.8,37.8 4.1,38.6 9.6,24.7 18.9,28.4 "/>
<polygon class="st0" points="20.7,42.3 24.2,37.8 29.9,38.6 24.3,24.7 15.1,28.4 "/>
<circle class="st1" cx="17" cy="17" r="15"/>
<g>
	<path class="st0" d="M13.4,21.2l1.6-1.7c1.6-1.8,3.3-3.5,3.3-4.8c0-1.3-0.9-1.6-2.2-1.6c-0.6,0-1.6,0.3-2.3,0.6l-0.3-2.2
		c0.9-0.5,2.2-0.7,3.6-0.7c3,0,4.4,1.2,4.4,3.5c0,2.3-2.6,4.9-3.3,5.6l-0.8,0.9h4v2.4h-8.1V21.2z"/>
</g>
</svg>
