<?xml version="1.0" encoding="utf-8"?>
<!-- Generator: Adobe Illustrator 25.3.1, SVG Export Plug-In . SVG Version: 6.00 Build 0)  -->
<svg version="1.1" id="레이어_14" xmlns="http://www.w3.org/2000/svg" xmlns:xlink="http://www.w3.org/1999/xlink" x="0px"
	 y="0px" viewBox="0 0 34 45.3" style="enable-background:new 0 0 34 45.3;" xml:space="preserve">
<style type="text/css">
	.st0{fill:#FFCB39;}
	.st1{fill:#FFFFFF;stroke:#FFCB39;stroke-width:4;stroke-miterlimit:10;}
	.st2{enable-background:new    ;}
</style>
<polygon class="st0" points="13.3,42.3 9.8,37.8 4.1,38.6 9.6,24.7 18.9,28.4 "/>
<polygon class="st0" points="20.7,42.3 24.2,37.8 29.9,38.6 24.3,24.7 15.1,28.4 "/>
<circle class="st1" cx="17" cy="17" r="15"/>
<g class="st2">
	<path class="st0" d="M13.2,22.4l0.4-2.2c0.5,0.3,1.8,0.6,2.8,0.6c1.1,0,2-0.4,2-1.6c0-1-0.8-1.2-2-1.3l-1.2-0.1v-2.1h1.1
		c1.1-0.1,2.1-0.5,2.1-1.4s-0.8-1.2-1.9-1.2c-0.8,0-1.6,0.1-2.3,0.4l-0.3-2.3c0.8-0.4,2.2-0.5,3.6-0.5c2.4,0,4.1,1,4.1,3
		c0,1.4-0.7,2.4-2,2.9c1.5,0.3,2.4,1.1,2.4,2.9c0,2.4-1.9,3.7-4.8,3.7C15.5,23.2,13.9,22.8,13.2,22.4z"/>
</g>
</svg>
