<svg id="레이어_13" data-name="레이어 13" xmlns="http://www.w3.org/2000/svg" viewBox="0 0 650 170.24"><defs>
<style>
.cls-1{fill:#f77d52;}
.cls-2{fill:#38a87d;}
.cls-3{fill:#407cf4;}
.cls-4{fill:#f9c943;}
.cls-5{opacity:0.44;}
.cls-6{fill:#fff;}
.cls-7{opacity:0.75;}
.cls-8{fill:none;stroke:#000;stroke-miterlimit:10;stroke-width:4px;}
</style>
</defs><rect class="cls-1" x="35" width="30" height="30"/><rect class="cls-2" width="30" height="30"/><rect class="cls-1" x="70" width="30" height="30"/><rect class="cls-1" x="35" y="35" width="30" height="30"/><rect class="cls-1" x="35" y="70" width="30" height="30"/><rect class="cls-1" x="35" y="105" width="30" height="30"/><rect class="cls-1" x="35" y="140" width="30" height="30"/><rect class="cls-3" x="155" width="30" height="30"/><rect class="cls-3" x="120" width="30" height="30"/><rect class="cls-3" x="190" width="30" height="30"/><rect class="cls-3" x="155" y="70" width="30" height="30"/><rect class="cls-3" x="190" y="70" width="30" height="30"/><rect class="cls-3" x="155" y="140" width="30" height="30"/><rect class="cls-4" x="190" y="140" width="30" height="30"/><rect class="cls-3" x="120" y="35" width="30" height="30"/><rect class="cls-3" x="120" y="70" width="30" height="30"/><rect class="cls-3" x="120" y="105" width="30" height="30"/><rect class="cls-3" x="120" y="140" width="30" height="30"/><rect class="cls-2" x="275" width="30" height="30"/><rect class="cls-2" x="240" width="30" height="30"/><rect class="cls-2" x="310" width="30" height="30"/><rect class="cls-2" x="275" y="35" width="30" height="30"/><rect class="cls-2" x="275" y="70" width="30" height="30"/><rect class="cls-2" x="275" y="105" width="30" height="30"/><rect class="cls-2" x="275" y="140" width="30" height="30"/><rect class="cls-1" x="395" width="30" height="30"/><rect class="cls-1" x="360" width="30" height="30"/><rect class="cls-1" x="430" width="30" height="30"/><rect class="cls-1" x="430" y="35" width="30" height="30"/><rect class="cls-1" x="395" y="70" width="30" height="30"/><rect class="cls-4" x="430" y="70" width="30" height="30"/><rect class="cls-1" x="395" y="105" width="30" height="30"/><rect class="cls-1" x="430" y="140" width="30" height="30"/><rect class="cls-1" x="360" y="35" width="30" height="30"/><rect class="cls-1" x="360" y="70" width="30" height="30"/><rect class="cls-1" x="360" y="105" width="30" height="30"/><rect class="cls-1" x="360" y="140" width="30" height="30"/><rect class="cls-4" x="490" width="30" height="30"/><rect class="cls-4" x="490" y="35" width="30" height="30"/><rect class="cls-4" x="490" y="70" width="30" height="30"/><rect class="cls-2" x="490" y="105" width="30" height="30"/><rect class="cls-4" x="490" y="140" width="30" height="30"/><rect class="cls-3" x="585" width="30" height="30"/><rect class="cls-3" x="550" width="30" height="30"/><rect class="cls-3" x="620" width="30" height="30"/><rect class="cls-3" x="585" y="70" width="30" height="30"/><rect class="cls-3" x="620" y="70" width="30" height="30"/><rect class="cls-3" x="585" y="140" width="30" height="30"/><rect class="cls-3" x="620" y="140" width="30" height="30"/><rect class="cls-3" x="550" y="35" width="30" height="30"/><rect class="cls-3" x="550" y="70" width="30" height="30"/><rect class="cls-3" x="620" y="105" width="30" height="30"/><rect class="cls-3" x="550" y="140" width="30" height="30"/><g class="cls-5"><path class="cls-6" d="M74,21V43H52V21H74m4-4H48V47H78V17Z" transform="translate(-13 -17)"/></g><g class="cls-5"><path class="cls-6" d="M39,21V43H17V21H39m4-4H13V47H43V17Z" transform="translate(-13 -17)"/></g><g class="cls-5"><path class="cls-6" d="M109,21V43H87V21h22m4-4H83V47h30V17Z" transform="translate(-13 -17)"/></g><g class="cls-5"><path class="cls-6" d="M74,56V78H52V56H74m4-4H48V82H78V52Z" transform="translate(-13 -17)"/></g><g class="cls-5"><path class="cls-6" d="M74,91v22H52V91H74m4-4H48v30H78V87Z" transform="translate(-13 -17)"/></g><g class="cls-5"><path class="cls-6" d="M74,126v22H52V126H74m4-4H48v30H78V122Z" transform="translate(-13 -17)"/></g><g class="cls-5"><path class="cls-6" d="M74,161v22H52V161H74m4-4H48v30H78V157Z" transform="translate(-13 -17)"/></g><g class="cls-5"><path class="cls-6" d="M194,21V43H172V21h22m4-4H168V47h30V17Z" transform="translate(-13 -17)"/></g><g class="cls-5"><path class="cls-6" d="M159,21V43H137V21h22m4-4H133V47h30V17Z" transform="translate(-13 -17)"/></g><g class="cls-5"><path class="cls-6" d="M229,21V43H207V21h22m4-4H203V47h30V17Z" transform="translate(-13 -17)"/></g><g class="cls-5"><path class="cls-6" d="M194,91v22H172V91h22m4-4H168v30h30V87Z" transform="translate(-13 -17)"/></g><g class="cls-5"><path class="cls-6" d="M229,91v22H207V91h22m4-4H203v30h30V87Z" transform="translate(-13 -17)"/></g><g class="cls-5"><path class="cls-6" d="M194,161v22H172V161h22m4-4H168v30h30V157Z" transform="translate(-13 -17)"/></g><g class="cls-5"><path class="cls-6" d="M229,161v22H207V161h22m4-4H203v30h30V157Z" transform="translate(-13 -17)"/></g><g class="cls-5"><path class="cls-6" d="M159,56V78H137V56h22m4-4H133V82h30V52Z" transform="translate(-13 -17)"/></g><g class="cls-5"><path class="cls-6" d="M159,91v22H137V91h22m4-4H133v30h30V87Z" transform="translate(-13 -17)"/></g><g class="cls-5"><path class="cls-6" d="M159,126v22H137V126h22m4-4H133v30h30V122Z" transform="translate(-13 -17)"/></g><g class="cls-5"><path class="cls-6" d="M159,161v22H137V161h22m4-4H133v30h30V157Z" transform="translate(-13 -17)"/></g><g class="cls-5"><path class="cls-6" d="M314,21V43H292V21h22m4-4H288V47h30V17Z" transform="translate(-13 -17)"/></g><g class="cls-5"><path class="cls-6" d="M279,21V43H257V21h22m4-4H253V47h30V17Z" transform="translate(-13 -17)"/></g><g class="cls-5"><path class="cls-6" d="M349,21V43H327V21h22m4-4H323V47h30V17Z" transform="translate(-13 -17)"/></g><g class="cls-5"><path class="cls-6" d="M314,56V78H292V56h22m4-4H288V82h30V52Z" transform="translate(-13 -17)"/></g><g class="cls-5"><path class="cls-6" d="M314,91v22H292V91h22m4-4H288v30h30V87Z" transform="translate(-13 -17)"/></g><g class="cls-5"><path class="cls-6" d="M314,126v22H292V126h22m4-4H288v30h30V122Z" transform="translate(-13 -17)"/></g><g class="cls-5"><path class="cls-6" d="M314,161v22H292V161h22m4-4H288v30h30V157Z" transform="translate(-13 -17)"/></g><g class="cls-5"><path class="cls-6" d="M434,21V43H412V21h22m4-4H408V47h30V17Z" transform="translate(-13 -17)"/></g><g class="cls-5"><path class="cls-6" d="M399,21V43H377V21h22m4-4H373V47h30V17Z" transform="translate(-13 -17)"/></g><g class="cls-5"><path class="cls-6" d="M469,21V43H447V21h22m4-4H443V47h30V17Z" transform="translate(-13 -17)"/></g><g class="cls-5"><path class="cls-6" d="M469,56V78H447V56h22m4-4H443V82h30V52Z" transform="translate(-13 -17)"/></g><g class="cls-5"><path class="cls-6" d="M434,91v22H412V91h22m4-4H408v30h30V87Z" transform="translate(-13 -17)"/></g><g class="cls-5"><path class="cls-6" d="M469,91v22H447V91h22m4-4H443v30h30V87Z" transform="translate(-13 -17)"/></g><g class="cls-5"><path class="cls-6" d="M434,126v22H412V126h22m4-4H408v30h30V122Z" transform="translate(-13 -17)"/></g><g class="cls-5"><path class="cls-6" d="M469,161v22H447V161h22m4-4H443v30h30V157Z" transform="translate(-13 -17)"/></g><g class="cls-5"><path class="cls-6" d="M399,56V78H377V56h22m4-4H373V82h30V52Z" transform="translate(-13 -17)"/></g><g class="cls-5"><path class="cls-6" d="M399,91v22H377V91h22m4-4H373v30h30V87Z" transform="translate(-13 -17)"/></g><g class="cls-5"><path class="cls-6" d="M399,126v22H377V126h22m4-4H373v30h30V122Z" transform="translate(-13 -17)"/></g><g class="cls-5"><path class="cls-6" d="M399,161v22H377V161h22m4-4H373v30h30V157Z" transform="translate(-13 -17)"/></g><g class="cls-5"><path class="cls-6" d="M529,21V43H507V21h22m4-4H503V47h30V17Z" transform="translate(-13 -17)"/></g><g class="cls-5"><path class="cls-6" d="M529,56V78H507V56h22m4-4H503V82h30V52Z" transform="translate(-13 -17)"/></g><g class="cls-5"><path class="cls-6" d="M529,91v22H507V91h22m4-4H503v30h30V87Z" transform="translate(-13 -17)"/></g><g class="cls-5"><path class="cls-6" d="M529,126v22H507V126h22m4-4H503v30h30V122Z" transform="translate(-13 -17)"/></g><g class="cls-5"><path class="cls-6" d="M529,161v22H507V161h22m4-4H503v30h30V157Z" transform="translate(-13 -17)"/></g><g class="cls-5"><path class="cls-6" d="M624,21V43H602V21h22m4-4H598V47h30V17Z" transform="translate(-13 -17)"/></g><g class="cls-5"><path class="cls-6" d="M589,21V43H567V21h22m4-4H563V47h30V17Z" transform="translate(-13 -17)"/></g><g class="cls-5"><path class="cls-6" d="M659,21V43H637V21h22m4-4H633V47h30V17Z" transform="translate(-13 -17)"/></g><g class="cls-5"><path class="cls-6" d="M624,91v22H602V91h22m4-4H598v30h30V87Z" transform="translate(-13 -17)"/></g><g class="cls-5"><path class="cls-6" d="M659,91v22H637V91h22m4-4H633v30h30V87Z" transform="translate(-13 -17)"/></g><g class="cls-5"><path class="cls-6" d="M624,161v22H602V161h22m4-4H598v30h30V157Z" transform="translate(-13 -17)"/></g><g class="cls-5"><path class="cls-6" d="M659,161v22H637V161h22m4-4H633v30h30V157Z" transform="translate(-13 -17)"/></g><g class="cls-5"><path class="cls-6" d="M589,56V78H567V56h22m4-4H563V82h30V52Z" transform="translate(-13 -17)"/></g><g class="cls-5"><path class="cls-6" d="M589,91v22H567V91h22m4-4H563v30h30V87Z" transform="translate(-13 -17)"/></g><g class="cls-5"><path class="cls-6" d="M659,126v22H637V126h22m4-4H633v30h30V122Z" transform="translate(-13 -17)"/></g><g class="cls-5"><path class="cls-6" d="M589,161v22H567V161h22m4-4H563v30h30V157Z" transform="translate(-13 -17)"/></g><g class="cls-7"><g class="cls-5"><polyline class="cls-8" points="27.61 2.25 27.61 28.25 1.61 28.25"/></g><g class="cls-5"><polyline class="cls-8" points="62.61 2.25 62.61 28.25 36.61 28.25"/></g><g class="cls-5"><polyline class="cls-8" points="62.61 37.24 62.61 63.24 36.61 63.24"/></g><g class="cls-5"><polyline class="cls-8" points="62.61 72.25 62.61 98.25 36.61 98.25"/></g><g class="cls-5"><polyline class="cls-8" points="62.61 107.25 62.61 133.25 36.61 133.25"/></g><g class="cls-5"><polyline class="cls-8" points="62.61 142.25 62.61 168.25 36.61 168.25"/></g><g class="cls-5"><polyline class="cls-8" points="97.61 2.25 97.61 28.25 71.61 28.25"/></g><g class="cls-5"><polyline class="cls-8" points="267.61 2.25 267.61 28.25 241.61 28.25"/></g><g class="cls-5"><polyline class="cls-8" points="302.61 2.25 302.61 28.25 276.61 28.25"/></g><g class="cls-5"><polyline class="cls-8" points="302.61 37.24 302.61 63.24 276.61 63.24"/></g><g class="cls-5"><polyline class="cls-8" points="302.61 72.25 302.61 98.25 276.61 98.25"/></g><g class="cls-5"><polyline class="cls-8" points="302.61 107.25 302.61 133.25 276.61 133.25"/></g><g class="cls-5"><polyline class="cls-8" points="302.61 142.25 302.61 168.25 276.61 168.25"/></g><g class="cls-5"><polyline class="cls-8" points="517.61 2.25 517.61 28.25 491.61 28.25"/></g><g class="cls-5"><polyline class="cls-8" points="517.61 37.24 517.61 63.24 491.61 63.24"/></g><g class="cls-5"><polyline class="cls-8" points="517.61 72.25 517.61 98.25 491.61 98.25"/></g><g class="cls-5"><polyline class="cls-8" points="517.61 107.25 517.61 133.25 491.61 133.25"/></g><g class="cls-5"><polyline class="cls-8" points="517.61 142.25 517.61 168.25 491.61 168.25"/></g><g class="cls-5"><polyline class="cls-8" points="337.61 2.25 337.61 28.25 311.61 28.25"/></g><g class="cls-5"><polyline class="cls-8" points="147.61 2.25 147.61 28.25 121.61 28.25"/><polyline class="cls-8" points="147.61 37.24 147.61 63.24 121.61 63.24"/><polyline class="cls-8" points="147.61 107.25 147.61 133.25 121.61 133.25"/></g><g class="cls-5"><polyline class="cls-8" points="182.61 2.25 182.61 28.25 156.61 28.25"/></g><g class="cls-5"><polyline class="cls-8" points="217.61 2.25 217.61 28.25 191.61 28.25"/></g><g class="cls-5"><polyline class="cls-8" points="147.61 72.25 147.61 98.25 121.61 98.25"/></g><g class="cls-5"><polyline class="cls-8" points="182.61 72.25 182.61 98.25 156.61 98.25"/></g><g class="cls-5"><polyline class="cls-8" points="217.61 72.25 217.61 98.25 191.61 98.25"/></g><g class="cls-5"><polyline class="cls-8" points="147.61 142.25 147.61 168.25 121.61 168.25"/></g><g class="cls-5"><polyline class="cls-8" points="182.61 142.25 182.61 168.25 156.61 168.25"/></g><g class="cls-5"><polyline class="cls-8" points="217.61 142.25 217.61 168.25 191.61 168.25"/></g><g class="cls-5"><polyline class="cls-8" points="387.61 2.25 387.61 28.25 361.61 28.25"/><polyline class="cls-8" points="387.61 37.24 387.61 63.24 361.61 63.24"/><polyline class="cls-8" points="387.61 107.25 387.61 133.25 361.61 133.25"/></g><g class="cls-5"><polyline class="cls-8" points="422.61 2.25 422.61 28.25 396.61 28.25"/></g><g class="cls-5"><polyline class="cls-8" points="457.61 2.25 457.61 28.25 431.61 28.25"/></g><g class="cls-5"><polyline class="cls-8" points="387.61 72.25 387.61 98.25 361.61 98.25"/></g><g class="cls-5"><polyline class="cls-8" points="422.61 72.25 422.61 98.25 396.61 98.25"/></g><g class="cls-5"><polyline class="cls-8" points="457.61 72.25 457.61 98.25 431.61 98.25"/></g><g class="cls-5"><polyline class="cls-8" points="457.61 37.24 457.61 63.24 431.61 63.24"/></g><g class="cls-5"><polyline class="cls-8" points="387.61 142.25 387.61 168.25 361.61 168.25"/></g><g class="cls-5"><polyline class="cls-8" points="422.61 107.25 422.61 133.25 396.61 133.25"/></g><g class="cls-5"><polyline class="cls-8" points="457.61 142.25 457.61 168.25 431.61 168.25"/></g><g class="cls-5"><polyline class="cls-8" points="577.61 2.25 577.61 28.25 551.61 28.25"/><polyline class="cls-8" points="577.61 37.24 577.61 63.24 551.61 63.24"/><polyline class="cls-8" points="647.61 107.25 647.61 133.25 621.61 133.25"/></g><g class="cls-5"><polyline class="cls-8" points="612.61 2.25 612.61 28.25 586.61 28.25"/></g><g class="cls-5"><polyline class="cls-8" points="647.61 2.25 647.61 28.25 621.61 28.25"/></g><g class="cls-5"><polyline class="cls-8" points="577.61 72.25 577.61 98.25 551.61 98.25"/></g><g class="cls-5"><polyline class="cls-8" points="612.61 72.25 612.61 98.25 586.61 98.25"/></g><g class="cls-5"><polyline class="cls-8" points="647.61 72.25 647.61 98.25 621.61 98.25"/></g><g class="cls-5"><polyline class="cls-8" points="577.61 142.25 577.61 168.25 551.61 168.25"/></g><g class="cls-5"><polyline class="cls-8" points="612.61 142.25 612.61 168.25 586.61 168.25"/></g><g class="cls-5"><polyline class="cls-8" points="647.61 142.25 647.61 168.25 621.61 168.25"/></g></g></svg>